<?xml version="1.0" encoding="UTF-8" standalone="no"?>
<svg
   xmlns:dc="http://purl.org/dc/elements/1.1/"
   xmlns:cc="http://creativecommons.org/ns#"
   xmlns:rdf="http://www.w3.org/1999/02/22-rdf-syntax-ns#"
   xmlns:svg="http://www.w3.org/2000/svg"
   xmlns="http://www.w3.org/2000/svg"
   xmlns:sodipodi="http://sodipodi.sourceforge.net/DTD/sodipodi-0.dtd"
   xmlns:inkscape="http://www.inkscape.org/namespaces/inkscape"
   height="332.70117pt"
   viewBox="0 -59 230.40269 332.70117"
   width="230.40234pt"
   version="1.1"
   id="svg22"
   sodipodi:docname="yellow.svg"
   inkscape:version="1.0.1 (3bc2e813f5, 2020-09-07)">
  <metadata
     id="metadata28">
    <rdf:RDF>
      <cc:Work
         rdf:about="">
        <dc:format>image/svg+xml</dc:format>
        <dc:type
           rdf:resource="http://purl.org/dc/dcmitype/StillImage" />
        <dc:title></dc:title>
      </cc:Work>
    </rdf:RDF>
  </metadata>
  <defs
     id="defs26" />
  <sodipodi:namedview
     pagecolor="#ffffff"
     bordercolor="#666666"
     borderopacity="1"
     objecttolerance="10"
     gridtolerance="10"
     guidetolerance="10"
     inkscape:pageopacity="0"
     inkscape:pageshadow="2"
     inkscape:window-width="1920"
     inkscape:window-height="1001"
     id="namedview24"
     showgrid="false"
     inkscape:zoom="1.2158203"
     inkscape:cx="153.6049"
     inkscape:cy="181.05766"
     inkscape:window-x="-9"
     inkscape:window-y="-9"
     inkscape:window-maximized="1"
     inkscape:current-layer="svg22"
     inkscape:document-rotation="0"
     fit-margin-top="0"
     fit-margin-left="0"
     fit-margin-right="0"
     fit-margin-bottom="0" />
  <path
     d="m 230.40268,56.199321 c 0,40.54297 -20.94922,76.195309 -52.61719,96.722659 -4.76562,3.08984 -8.75391,7.24609 -11.55078,12.19531 l -35.97656,89.51172 -5.39844,13.4414 c -4.24609,7.50782 -15.06641,7.50782 -19.3125,0 L 64.172215,165.11729 c -2.78906,-4.9375 -6.77344,-9.09375 -11.53125,-12.17578 C 20.519875,132.1251 -0.57778537,95.757911 0.01205463,54.496201 0.90658463,-7.5272386 51.535495,-58.124898 113.55502,-58.988179 c 5.6836,-0.08203 11.28516,0.25 16.75391,0.972656 56.48047,7.386719 100.09375,55.7187544 100.09375,114.214844 z m 0,0"
     fill="#5db33a"
     id="path2"
     style="fill:#fdd835;fill-opacity:1" />
  <path
     d="m 187.14877,53.609481 c 0,34.58203 -24.3789,63.449209 -56.89062,70.363279 -4.85938,1.04297 -9.88672,1.58593 -15.05469,1.58593 -39.738275,0 -71.949215,-32.210929 -71.949215,-71.949209 0,-39.73829 32.21094,-71.94532 71.949215,-71.94532 5.16797,0 10.19531,0.54297 15.05469,1.58594 32.51172,6.9140604 56.89062,35.78125 56.89062,70.35938 z m 0,0"
     fill="#f39c1a"
     id="path6"
     style="fill:#ffffff" />
</svg>
