<?xml version="1.0" encoding="UTF-8" standalone="no"?>
<!-- Generator: Adobe Illustrator 16.0.0, SVG Export Plug-In . SVG Version: 6.00 Build 0)  -->

<svg
   xmlns:dc="http://purl.org/dc/elements/1.1/"
   xmlns:cc="http://creativecommons.org/ns#"
   xmlns:rdf="http://www.w3.org/1999/02/22-rdf-syntax-ns#"
   xmlns:svg="http://www.w3.org/2000/svg"
   xmlns="http://www.w3.org/2000/svg"
   xmlns:sodipodi="http://sodipodi.sourceforge.net/DTD/sodipodi-0.dtd"
   xmlns:inkscape="http://www.inkscape.org/namespaces/inkscape"
   version="1.1"
   id="Capa_1"
   x="0px"
   y="0px"
   width="292.354"
   height="438.53601"
   viewBox="0 0 292.354 438.536"
   xml:space="preserve"
   sodipodi:docname="yellowMarker.svg"
   inkscape:version="0.92.4 (5da689c313, 2019-01-14)"><metadata
   id="metadata41"><rdf:RDF><cc:Work
       rdf:about=""><dc:format>image/svg+xml</dc:format><dc:type
         rdf:resource="http://purl.org/dc/dcmitype/StillImage" /><dc:title></dc:title></cc:Work></rdf:RDF></metadata><defs
   id="defs39" /><sodipodi:namedview
   pagecolor="#ffffff"
   bordercolor="#666666"
   borderopacity="1"
   objecttolerance="10"
   gridtolerance="10"
   guidetolerance="10"
   inkscape:pageopacity="0"
   inkscape:pageshadow="2"
   inkscape:window-width="1920"
   inkscape:window-height="1057"
   id="namedview37"
   showgrid="false"
   fit-margin-top="0"
   fit-margin-left="0"
   fit-margin-right="0"
   fit-margin-bottom="0"
   inkscape:zoom="0.53815421"
   inkscape:cx="144.3188"
   inkscape:cy="219.268"
   inkscape:window-x="-8"
   inkscape:window-y="-8"
   inkscape:window-maximized="1"
   inkscape:current-layer="Capa_1" />

<g
   id="g6"
   transform="translate(-74.949209,-8.4697762e-6)">
</g>
<g
   id="g8"
   transform="translate(-74.949209,-8.4697762e-6)">
</g>
<g
   id="g10"
   transform="translate(-74.949209,-8.4697762e-6)">
</g>
<g
   id="g12"
   transform="translate(-74.949209,-8.4697762e-6)">
</g>
<g
   id="g14"
   transform="translate(-74.949209,-8.4697762e-6)">
</g>
<g
   id="g16"
   transform="translate(-74.949209,-8.4697762e-6)">
</g>
<g
   id="g18"
   transform="translate(-74.949209,-8.4697762e-6)">
</g>
<g
   id="g20"
   transform="translate(-74.949209,-8.4697762e-6)">
</g>
<g
   id="g22"
   transform="translate(-74.949209,-8.4697762e-6)">
</g>
<g
   id="g24"
   transform="translate(-74.949209,-8.4697762e-6)">
</g>
<g
   id="g26"
   transform="translate(-74.949209,-8.4697762e-6)">
</g>
<g
   id="g28"
   transform="translate(-74.949209,-8.4697762e-6)">
</g>
<g
   id="g30"
   transform="translate(-74.949209,-8.4697762e-6)">
</g>
<g
   id="g32"
   transform="translate(-74.949209,-8.4697762e-6)">
</g>
<g
   id="g34"
   transform="translate(-74.949209,-8.4697762e-6)">
</g>
<g
   id="g4"
   transform="translate(-73.09)"
   style="fill:#d4aa00"><path
     d="M 322.621,42.825 C 294.073,14.272 259.619,0 219.268,0 178.915,0 144.465,14.275 115.915,42.825 c -28.549,28.549 -42.825,63 -42.825,103.353 0,20.749 3.14,37.782 9.419,51.106 l 104.21,220.986 c 2.856,6.276 7.283,11.225 13.278,14.838 5.996,3.617 12.419,5.428 19.273,5.428 6.852,0 13.278,-1.811 19.273,-5.428 5.996,-3.613 10.513,-8.562 13.559,-14.838 L 356.02,197.284 c 6.282,-13.324 9.424,-30.358 9.424,-51.106 0.005,-40.353 -14.268,-74.8 -42.823,-103.353 z m -51.679,155.03 c -14.273,14.272 -31.497,21.411 -51.674,21.411 -20.177,0 -37.401,-7.139 -51.678,-21.411 -14.275,-14.277 -21.414,-31.501 -21.414,-51.678 0,-20.175 7.139,-37.402 21.414,-51.675 14.277,-14.275 31.504,-21.414 51.678,-21.414 20.177,0 37.401,7.139 51.674,21.414 14.274,14.272 21.413,31.5 21.413,51.675 0,20.175 -7.138,37.398 -21.413,51.678 z"
     id="path2"
     inkscape:connector-curvature="0"
     style="fill:#d4aa00" /></g></svg>