<?xml version="1.0" encoding="UTF-8" standalone="no"?>
<!-- Generator: Adobe Illustrator 19.0.0, SVG Export Plug-In . SVG Version: 6.00 Build 0)  -->

<svg
   xmlns:dc="http://purl.org/dc/elements/1.1/"
   xmlns:cc="http://creativecommons.org/ns#"
   xmlns:rdf="http://www.w3.org/1999/02/22-rdf-syntax-ns#"
   xmlns:svg="http://www.w3.org/2000/svg"
   xmlns="http://www.w3.org/2000/svg"
   xmlns:sodipodi="http://sodipodi.sourceforge.net/DTD/sodipodi-0.dtd"
   xmlns:inkscape="http://www.inkscape.org/namespaces/inkscape"
   version="1.1"
   id="Capa_1"
   x="0px"
   y="0px"
   viewBox="0 0 512 490.66699"
   xml:space="preserve"
   sodipodi:docname="signal0.svg"
   inkscape:version="0.92.4 (5da689c313, 2019-01-14)"
   width="512"
   height="490.66699"><metadata
   id="metadata49"><rdf:RDF><cc:Work
       rdf:about=""><dc:format>image/svg+xml</dc:format><dc:type
         rdf:resource="http://purl.org/dc/dcmitype/StillImage" /><dc:title></dc:title></cc:Work></rdf:RDF></metadata><defs
   id="defs47" /><sodipodi:namedview
   pagecolor="#ffffff"
   bordercolor="#666666"
   borderopacity="1"
   objecttolerance="10"
   gridtolerance="10"
   guidetolerance="10"
   inkscape:pageopacity="0"
   inkscape:pageshadow="2"
   inkscape:window-width="1920"
   inkscape:window-height="1057"
   id="namedview45"
   showgrid="false"
   inkscape:zoom="1"
   inkscape:cx="256"
   inkscape:cy="256"
   inkscape:window-x="-8"
   inkscape:window-y="-8"
   inkscape:window-maximized="1"
   inkscape:current-layer="Capa_1" />
<g
   id="g12"
   transform="translate(0,223.99999)">
	<path
   style="fill:#455a64"
   d="m 74.667,266.667 h -64 C 4.776,266.667 0,261.891 0,256 0,250.109 4.776,245.333 10.667,245.333 h 64 c 5.891,0 10.667,4.776 10.667,10.667 -0.001,5.891 -4.776,10.667 -10.667,10.667 z"
   id="path2"
   inkscape:connector-curvature="0" />
	<path
   style="fill:#455a64"
   d="m 181.333,266.667 h -64 c -5.891,0 -10.667,-4.776 -10.667,-10.667 0,-5.891 4.776,-10.667 10.667,-10.667 h 64 c 5.891,0 10.667,4.776 10.667,10.667 0,5.891 -4.776,10.667 -10.667,10.667 z"
   id="path4"
   inkscape:connector-curvature="0" />
	<path
   style="fill:#455a64"
   d="m 288,266.667 h -64 c -5.891,0 -10.667,-4.776 -10.667,-10.667 0,-5.891 4.776,-10.667 10.667,-10.667 h 64 c 5.891,0 10.667,4.776 10.667,10.667 0,5.891 -4.776,10.667 -10.667,10.667 z"
   id="path6"
   inkscape:connector-curvature="0" />
	<path
   style="fill:#455a64"
   d="m 394.667,266.667 h -64 C 324.776,266.667 320,261.891 320,256 c 0,-5.891 4.776,-10.667 10.667,-10.667 h 64 c 5.891,0 10.667,4.776 10.667,10.667 -10e-4,5.891 -4.776,10.667 -10.667,10.667 z"
   id="path8"
   inkscape:connector-curvature="0" />
	<path
   style="fill:#455a64"
   d="m 501.333,266.667 h -64 c -5.891,0 -10.667,-4.776 -10.667,-10.667 0,-5.891 4.776,-10.667 10.667,-10.667 h 64 c 5.891,0 10.667,4.776 10.667,10.667 0,5.891 -4.776,10.667 -10.667,10.667 z"
   id="path10"
   inkscape:connector-curvature="0" />
</g>
<g
   id="g14"
   transform="translate(0,-21.33301)">
</g>
<g
   id="g16"
   transform="translate(0,-21.33301)">
</g>
<g
   id="g18"
   transform="translate(0,-21.33301)">
</g>
<g
   id="g20"
   transform="translate(0,-21.33301)">
</g>
<g
   id="g22"
   transform="translate(0,-21.33301)">
</g>
<g
   id="g24"
   transform="translate(0,-21.33301)">
</g>
<g
   id="g26"
   transform="translate(0,-21.33301)">
</g>
<g
   id="g28"
   transform="translate(0,-21.33301)">
</g>
<g
   id="g30"
   transform="translate(0,-21.33301)">
</g>
<g
   id="g32"
   transform="translate(0,-21.33301)">
</g>
<g
   id="g34"
   transform="translate(0,-21.33301)">
</g>
<g
   id="g36"
   transform="translate(0,-21.33301)">
</g>
<g
   id="g38"
   transform="translate(0,-21.33301)">
</g>
<g
   id="g40"
   transform="translate(0,-21.33301)">
</g>
<g
   id="g42"
   transform="translate(0,-21.33301)">
</g>
</svg>