<?xml version="1.0" encoding="UTF-8" standalone="no"?>
<!-- Generator: Adobe Illustrator 19.0.0, SVG Export Plug-In . SVG Version: 6.00 Build 0)  -->

<svg
   xmlns:dc="http://purl.org/dc/elements/1.1/"
   xmlns:cc="http://creativecommons.org/ns#"
   xmlns:rdf="http://www.w3.org/1999/02/22-rdf-syntax-ns#"
   xmlns:svg="http://www.w3.org/2000/svg"
   xmlns="http://www.w3.org/2000/svg"
   xmlns:sodipodi="http://sodipodi.sourceforge.net/DTD/sodipodi-0.dtd"
   xmlns:inkscape="http://www.inkscape.org/namespaces/inkscape"
   version="1.1"
   id="Capa_1"
   x="0px"
   y="0px"
   viewBox="0 0 512 490.66699"
   xml:space="preserve"
   sodipodi:docname="signal (5).svg"
   width="512"
   height="490.66699"
   inkscape:version="0.92.4 (5da689c313, 2019-01-14)"><metadata
   id="metadata47"><rdf:RDF><cc:Work
       rdf:about=""><dc:format>image/svg+xml</dc:format><dc:type
         rdf:resource="http://purl.org/dc/dcmitype/StillImage" /><dc:title></dc:title></cc:Work></rdf:RDF></metadata><defs
   id="defs45" /><sodipodi:namedview
   pagecolor="#ffffff"
   bordercolor="#666666"
   borderopacity="1"
   objecttolerance="10"
   gridtolerance="10"
   guidetolerance="10"
   inkscape:pageopacity="0"
   inkscape:pageshadow="2"
   inkscape:window-width="640"
   inkscape:window-height="480"
   id="namedview43"
   showgrid="false"
   fit-margin-top="0"
   fit-margin-left="0"
   fit-margin-right="0"
   fit-margin-bottom="0"
   inkscape:zoom="0.4609375"
   inkscape:cx="256"
   inkscape:cy="256.00002"
   inkscape:window-x="505"
   inkscape:window-y="104"
   inkscape:window-maximized="0"
   inkscape:current-layer="Capa_1" />
<path
   style="fill:#80cbc4"
   d="m 10.667,384 h 64 c 5.891,0 10.667,4.776 10.667,10.667 V 480 c 0,5.891 -4.776,10.667 -10.667,10.667 h -64 C 4.776,490.666 0,485.891 0,480 V 394.667 C 0,388.775 4.776,384 10.667,384 Z"
   id="path2"
   inkscape:connector-curvature="0" />
<path
   style="fill:#4db6ac"
   d="m 117.333,298.666 h 64 c 5.891,0 10.667,4.776 10.667,10.667 V 480 c 0,5.891 -4.776,10.667 -10.667,10.667 h -64 c -5.891,0 -10.667,-4.776 -10.667,-10.667 V 309.333 c 0.001,-5.891 4.776,-10.667 10.667,-10.667 z"
   id="path4"
   inkscape:connector-curvature="0" />
<path
   style="fill:#26a69a"
   d="m 224,192 h 64 c 5.891,0 10.667,4.776 10.667,10.667 V 480 c 0,5.891 -4.776,10.667 -10.667,10.667 h -64 c -5.891,0 -10.667,-4.776 -10.667,-10.667 V 202.666 C 213.333,196.775 218.109,192 224,192 Z"
   id="path6"
   inkscape:connector-curvature="0" />
<path
   style="fill:#009688"
   d="m 330.667,85.332998 h 64 c 5.891,0 10.667,4.776 10.667,10.667 V 480 c 0,5.891 -4.776,10.667 -10.667,10.667 h -64 C 324.776,490.667 320,485.891 320,480 V 95.999998 c 0,-5.891 4.776,-10.667 10.667,-10.667 z"
   id="path8"
   inkscape:connector-curvature="0" />
<path
   style="fill:#00897b"
   d="m 437.333,-2.1875e-6 h 64 C 507.224,-2.1875e-6 512,4.7759978 512,10.666998 V 480 c 0,5.891 -4.776,10.667 -10.667,10.667 h -64 c -5.891,0 -10.667,-4.776 -10.667,-10.667 V 10.665998 C 426.667,4.7749978 431.442,-2.1875e-6 437.333,-2.1875e-6 Z"
   id="path10"
   inkscape:connector-curvature="0" />
<g
   id="g12"
   transform="translate(0,-21.333002)">
</g>
<g
   id="g14"
   transform="translate(0,-21.333002)">
</g>
<g
   id="g16"
   transform="translate(0,-21.333002)">
</g>
<g
   id="g18"
   transform="translate(0,-21.333002)">
</g>
<g
   id="g20"
   transform="translate(0,-21.333002)">
</g>
<g
   id="g22"
   transform="translate(0,-21.333002)">
</g>
<g
   id="g24"
   transform="translate(0,-21.333002)">
</g>
<g
   id="g26"
   transform="translate(0,-21.333002)">
</g>
<g
   id="g28"
   transform="translate(0,-21.333002)">
</g>
<g
   id="g30"
   transform="translate(0,-21.333002)">
</g>
<g
   id="g32"
   transform="translate(0,-21.333002)">
</g>
<g
   id="g34"
   transform="translate(0,-21.333002)">
</g>
<g
   id="g36"
   transform="translate(0,-21.333002)">
</g>
<g
   id="g38"
   transform="translate(0,-21.333002)">
</g>
<g
   id="g40"
   transform="translate(0,-21.333002)">
</g>
</svg>