<?xml version="1.0" encoding="UTF-8" standalone="no"?>
<!-- Generator: Adobe Illustrator 19.0.0, SVG Export Plug-In . SVG Version: 6.00 Build 0)  -->

<svg
   xmlns:dc="http://purl.org/dc/elements/1.1/"
   xmlns:cc="http://creativecommons.org/ns#"
   xmlns:rdf="http://www.w3.org/1999/02/22-rdf-syntax-ns#"
   xmlns:svg="http://www.w3.org/2000/svg"
   xmlns="http://www.w3.org/2000/svg"
   xmlns:sodipodi="http://sodipodi.sourceforge.net/DTD/sodipodi-0.dtd"
   xmlns:inkscape="http://www.inkscape.org/namespaces/inkscape"
   version="1.1"
   id="Capa_1"
   x="0px"
   y="0px"
   viewBox="0 0 512 490.66699"
   xml:space="preserve"
   sodipodi:docname="signal4.svg"
   inkscape:version="0.92.4 (5da689c313, 2019-01-14)"
   width="512"
   height="490.66699"><metadata
   id="metadata47"><rdf:RDF><cc:Work
       rdf:about=""><dc:format>image/svg+xml</dc:format><dc:type
         rdf:resource="http://purl.org/dc/dcmitype/StillImage" /><dc:title></dc:title></cc:Work></rdf:RDF></metadata><defs
   id="defs45" /><sodipodi:namedview
   pagecolor="#ffffff"
   bordercolor="#666666"
   borderopacity="1"
   objecttolerance="10"
   gridtolerance="10"
   guidetolerance="10"
   inkscape:pageopacity="0"
   inkscape:pageshadow="2"
   inkscape:window-width="640"
   inkscape:window-height="480"
   id="namedview43"
   showgrid="false"
   inkscape:zoom="0.4609375"
   inkscape:cx="256"
   inkscape:cy="256"
   inkscape:window-x="378"
   inkscape:window-y="123"
   inkscape:window-maximized="0"
   inkscape:current-layer="Capa_1" />
<path
   style="fill:#80cbc4"
   d="m 10.667,383.99999 h 64 c 5.891,0 10.667,4.776 10.667,10.667 v 85.333 c 0,5.891 -4.776,10.667 -10.667,10.667 h -64 c -5.891,0 -10.667,-4.776 -10.667,-10.667 v -85.333 c 0,-5.891 4.776,-10.667 10.667,-10.667 z"
   id="path2"
   inkscape:connector-curvature="0" />
<path
   style="fill:#4db6ac"
   d="m 117.333,298.66699 h 64 c 5.891,0 10.667,4.776 10.667,10.667 v 170.666 c 0,5.891 -4.776,10.667 -10.667,10.667 h -64 c -5.891,0 -10.667,-4.776 -10.667,-10.667 v -170.667 c 0.001,-5.891 4.776,-10.666 10.667,-10.666 z"
   id="path4"
   inkscape:connector-curvature="0" />
<path
   style="fill:#26a69a"
   d="m 224,191.99999 h 64 c 5.891,0 10.667,4.776 10.667,10.667 v 277.333 c 0,5.891 -4.776,10.667 -10.667,10.667 h -64 c -5.891,0 -10.667,-4.776 -10.667,-10.667 v -277.333 c 0,-5.891 4.776,-10.667 10.667,-10.667 z"
   id="path6"
   inkscape:connector-curvature="0" />
<path
   style="fill:#009688"
   d="m 330.667,85.33299 h 64 c 5.891,0 10.667,4.776 10.667,10.667 v 384 c 0,5.891 -4.776,10.667 -10.667,10.667 h -64 c -5.891,0 -10.667,-4.776 -10.667,-10.667 v -384 c 0,-5.891 4.776,-10.667 10.667,-10.667 z"
   id="path8"
   inkscape:connector-curvature="0" />
<path
   style="fill:#455a64"
   d="m 501.333,490.66699 h -64 c -5.891,0 -10.667,-4.776 -10.667,-10.667 0,-5.891 4.776,-10.667 10.667,-10.667 h 64 c 5.891,0 10.667,4.776 10.667,10.667 0,5.891 -4.776,10.667 -10.667,10.667 z"
   id="path10"
   inkscape:connector-curvature="0" />
<g
   id="g12"
   transform="translate(0,-21.33301)">
</g>
<g
   id="g14"
   transform="translate(0,-21.33301)">
</g>
<g
   id="g16"
   transform="translate(0,-21.33301)">
</g>
<g
   id="g18"
   transform="translate(0,-21.33301)">
</g>
<g
   id="g20"
   transform="translate(0,-21.33301)">
</g>
<g
   id="g22"
   transform="translate(0,-21.33301)">
</g>
<g
   id="g24"
   transform="translate(0,-21.33301)">
</g>
<g
   id="g26"
   transform="translate(0,-21.33301)">
</g>
<g
   id="g28"
   transform="translate(0,-21.33301)">
</g>
<g
   id="g30"
   transform="translate(0,-21.33301)">
</g>
<g
   id="g32"
   transform="translate(0,-21.33301)">
</g>
<g
   id="g34"
   transform="translate(0,-21.33301)">
</g>
<g
   id="g36"
   transform="translate(0,-21.33301)">
</g>
<g
   id="g38"
   transform="translate(0,-21.33301)">
</g>
<g
   id="g40"
   transform="translate(0,-21.33301)">
</g>
</svg>